<svg width="176" height="166" viewBox="0 0 176 166" fill="none" xmlns="http://www.w3.org/2000/svg">
<path d="M3.27867 29.4277C1.98038 21.5137 8.08738 14.3232 16.1072 14.3232L135.152 14.3232C141.52 14.3232 146.95 18.9353 147.981 25.2187L168.323 149.219C169.621 157.133 163.514 164.323 155.494 164.323H36.4493C30.0818 164.323 24.6516 159.711 23.6208 153.428L3.27867 29.4277Z" fill="white" stroke="#21406E" stroke-width="3"/>
<path d="M8.45346 23.0812C7.15518 15.1672 13.2622 7.97675 21.282 7.97675L140.326 7.97675C146.694 7.97675 152.124 12.5888 153.155 18.8722L173.497 142.871C174.795 150.785 168.688 157.976 160.668 157.976H41.624C35.2565 157.976 29.8262 153.364 28.7954 147.08L8.45346 23.0812Z" fill="white" stroke="#21406E" stroke-width="3"/>
<path d="M104.354 47.2673H137.484" stroke="black" stroke-width="3"/>
<path d="M117.553 114.937H150.683" stroke="black" stroke-width="3"/>
<path d="M107.832 65.1635H140.962" stroke="black" stroke-width="3"/>
<path d="M121.03 132.833H154.161" stroke="black" stroke-width="3"/>
<path d="M100.414 30.1998H134.005" stroke="black" stroke-width="3"/>
<path d="M113.613 97.8692H147.204" stroke="black" stroke-width="3"/>
<path d="M44.2331 107.759C43.0337 99.8896 49.1245 92.8001 57.0847 92.8001H80.9671C87.3904 92.8001 92.8508 97.4914 93.8187 103.841L96.604 122.116C97.8034 129.985 91.7126 137.075 83.7524 137.075H59.87C53.4466 137.075 47.9862 132.383 47.0184 126.033L44.2331 107.759Z" fill="white" stroke="#21406E" stroke-width="3"/>
<path d="M56.9902 114.299L67.6184 125.12L84.6861 103.824" stroke="black" stroke-width="3" stroke-linejoin="round"/>
<path d="M31.276 40.0381C30.0766 32.1688 36.1674 25.0793 44.1276 25.0793H68.0101C74.4334 25.0793 79.8938 29.7706 80.8616 36.1206L83.6469 54.395C84.8464 62.2643 78.7555 69.3538 70.7954 69.3538H46.9129C40.4896 69.3538 35.0292 64.6626 34.0613 58.3126L31.276 40.0381Z" fill="black" stroke="black" stroke-width="3"/>
<path d="M72.656 58.718L42.2646 35.716" stroke="white" stroke-width="3" stroke-linejoin="round"/>
<path d="M45.9591 59.5918L69.4482 34.7396" stroke="white" stroke-width="3" stroke-linejoin="round"/>
<path d="M57.1527 11.3387C54.9121 6.85029 58.1762 1.57254 63.1928 1.57254L98.2265 1.57254C100.785 1.57254 103.124 3.01896 104.267 5.30814C106.507 9.79657 103.243 15.0743 98.2265 15.0743H63.1928C60.6342 15.0743 58.2955 13.6279 57.1527 11.3387Z" fill="#EC642C" stroke="#21406E" stroke-width="3"/>
</svg>
