<svg width="200" height="154" viewBox="0 0 200 154" fill="none" xmlns="http://www.w3.org/2000/svg">
<path d="M1.85233 36.0114C0.869285 28.2458 6.92177 21.3788 14.7494 21.3788L172.007 21.3788C178.555 21.3788 184.081 26.2496 184.904 32.7462L198.148 137.367C199.131 145.133 193.078 152 185.251 152H27.9933C21.4449 152 15.9187 147.129 15.0963 140.633L1.85233 36.0114Z" fill="white" stroke="#21406E" stroke-width="3"/>
<path d="M96.6455 55.5934H169.385" stroke="black" stroke-width="3"/>
<path d="M100.747 71.1779H173.487" stroke="black" stroke-width="3"/>
<path d="M30.6152 117.214H177.61" stroke="#21406E" stroke-width="3"/>
<path d="M33.5488 132.798H181.805" stroke="black" stroke-width="3" stroke-dasharray="6 6"/>
<path d="M103.725 86.6896H138.511" stroke="black" stroke-width="3"/>
<path d="M21.283 43.9195C21.0581 42.1284 22.4545 40.5457 24.2596 40.5457H70.7807C72.293 40.5457 73.5689 41.6714 73.7573 43.1719L80.0728 93.4677C80.2977 95.2588 78.9013 96.8415 77.0961 96.8415H30.5751C29.0628 96.8415 27.7869 95.7158 27.5985 94.2153L21.283 43.9195Z" fill="white" stroke="black" stroke-width="3"/>
<mask id="mask0_200_4792" style="mask-type:alpha" maskUnits="userSpaceOnUse" x="19" y="39" width="63" height="60">
<path d="M21.283 43.9195C21.0581 42.1284 22.4545 40.5457 24.2596 40.5457H70.7807C72.293 40.5457 73.5689 41.6714 73.7573 43.1719L80.0728 93.4677C80.2977 95.2588 78.9013 96.8415 77.0961 96.8415H30.5751C29.0628 96.8415 27.7869 95.7158 27.5985 94.2153L21.283 43.9195Z" fill="white" stroke="black" stroke-width="3"/>
</mask>
<g mask="url(#mask0_200_4792)">
<path fill-rule="evenodd" clip-rule="evenodd" d="M30.9879 87.5633C31.4487 87.3326 31.7216 86.8399 31.6569 86.3286C31.0943 80.4008 30.4917 66.1922 36.32 57.9722C39.1059 54.0454 42.9683 52.0053 47.7987 51.8988C66.6066 51.4843 69.4965 51.4206 69.6019 60.6104C69.6141 61.6796 69.771 63.0113 69.9396 64.4239L69.9402 64.4288C70.4461 68.7442 71.0761 74.1175 68.0579 77.1186C66.5342 78.6327 64.3477 79.301 61.3763 79.126C60.754 79.0893 60.3839 79.9022 60.8549 80.3105C61.0532 80.4824 61.121 80.7608 61.024 81.0045L60.6878 81.8495C60.3329 82.7413 59.3686 83.2223 58.4299 83.0217C56.5065 82.6107 54.6343 82.3763 53.1873 82.3418C53.0971 82.3397 53.0082 82.341 52.9206 82.3456C51.0282 82.4452 51.925 84.6745 53.7565 85.161C70.3976 89.5811 82.8286 107.135 82.8286 128.116C82.8286 152.432 66.1319 172.144 45.5354 172.144C24.9389 172.144 8.24219 152.432 8.24219 128.116C8.24219 109.893 17.6195 94.2559 30.9879 87.5633Z" fill="black"/>
</g>
<path d="M21.283 43.9195C21.0581 42.1284 22.4545 40.5457 24.2596 40.5457H70.7807C72.293 40.5457 73.5689 41.6714 73.7573 43.1719L80.0728 93.4677C80.2977 95.2588 78.9013 96.8415 77.0961 96.8415H30.5751C29.0628 96.8415 27.7869 95.7158 27.5985 94.2153L21.283 43.9195Z" stroke="black" stroke-width="3"/>
<path d="M148.833 16.6196C147.858 8.8582 153.909 2 161.732 2L179.627 2C186.181 2 191.71 6.87797 192.526 13.3804L195.191 34.6075C196.166 42.3689 190.115 49.2271 182.293 49.2271H164.397C157.843 49.2271 152.315 44.3491 151.498 37.8468L148.833 16.6196Z" fill="white" stroke="#21406E" stroke-width="3"/>
<path d="M185.365 37.8819L158.657 13.346" stroke="#21406E" stroke-width="3" stroke-linejoin="round"/>
<path d="M161.904 38.8141L182.546 12.3044" stroke="#21406E" stroke-width="3" stroke-linejoin="round"/>
</svg>
